<?xml version="1.0" encoding="UTF-8" standalone="no"?>
<svg width="181px" height="34px" viewBox="0 0 181 34" version="1.1" xmlns="http://www.w3.org/2000/svg" xmlns:xlink="http://www.w3.org/1999/xlink" xmlns:sketch="http://www.bohemiancoding.com/sketch/ns">
    <!-- Generator: Sketch 3.3.3 (12081) - http://www.bohemiancoding.com/sketch -->
    <title>Design + Logo</title>
    <desc>Created with Sketch.</desc>
    <defs></defs>
    <g id="Style-Guide-(v2.0)" stroke="none" stroke-width="1" fill="none" fill-rule="evenodd" sketch:type="MSPage">
        <g id="Home" sketch:type="MSArtboardGroup" transform="translate(-26.000000, -11.000000)">
            <g id="Header" sketch:type="MSLayerGroup">
                <g id="Design-+-Logo" transform="translate(26.000000, 11.000000)" sketch:type="MSShapeGroup">
                    <g id="Logo">
                        <path d="M18.0580605,0 C7.93188417,0 0,7.20301264 0,16.0863624 L0,34 L86.022382,34 C95.3275342,34 104,27.3969336 104,17.9124182 L104,0 L18.0580605,0" id="Fill-1" fill="#FFFFFF"></path>
                        <path d="M32.073811,27.1844107 L27.9487195,27.1812095 L27.1669817,13.1445022 L24.0035366,27.1844107 L16.9307622,27.1844107 L14.7475305,13.7072766 L13.0617683,27.1844107 L8,27.1844107 L9.80484756,8.3785266 L20.6934756,8.3785266 L21.8042988,20.4848986 L24.411372,8.3785266 L33.8447256,8.3785266 L35.3339329,27.1844107 L32.073811,27.1844107 L32.073811,27.1844107 Z M41.9182012,20.0834656 L41.9182012,27.1844107 L49.2169817,27.1844107 L49.2457927,20.2409656 L56.376189,8.3785266 L50.9174695,8.3785266 L47.0702439,15.7093193 L43.2076524,8.37596563 L35.2929573,8.3785266 L41.9182012,20.0834656 L41.9182012,20.0834656 Z M79.029939,8.40861807 L79.029939,26.9705693 C79.029939,26.9705693 89.0382317,28.17999 93.5596341,26.0857522 C98.0765549,23.9857522 97.6732012,21.3210571 96.6238415,19.5443803 C96.4272866,19.2101729 96.1827134,18.9175815 95.913811,18.6698071 C95.7082927,18.4777339 95.4918902,18.30999 95.2703659,18.1659351 C95.0482012,18.0122766 94.8209146,17.8887095 94.6019512,17.7837095 C94.3893902,17.6723071 93.2350305,17.2881607 93.2350305,17.2881607 C93.2350305,17.2881607 93.7228963,17.1761181 94.3509756,16.8867278 C94.5347256,16.7970937 94.7338415,16.6959351 94.9323171,16.5768498 C95.2742073,16.3732522 95.6257012,16.1139534 95.9342988,15.7963925 C96.7999085,14.9038925 97.3710061,13.5331303 96.6238415,11.4747461 C94.9284756,6.79584368 79.029939,8.40861807 79.029939,8.40861807 L79.029939,8.40861807 Z M90.0875915,14.0581303 C90.0069207,16.6434351 85.9682622,15.9129168 85.9682622,15.9129168 L85.9682622,12.2052644 C85.9682622,12.2052644 90.1721037,11.4747461 90.0875915,14.0581303 L90.0875915,14.0581303 Z M90.558811,21.2384656 C90.4787805,23.8231303 86.1212805,23.0970937 86.1212805,23.0970937 L86.1212805,19.3830388 C86.1212805,19.3830388 90.6414024,18.65124 90.558811,21.2384656 L90.558811,21.2384656 Z M66.5074085,27.4507522 C58.266189,28.0173681 52.9585671,21.1597156 55.3774085,14.3769717 C57.798811,7.59934977 66.5074085,8.00462416 66.5074085,8.00462416 L66.5944817,8.00462416 C66.5944817,8.00462416 74.2415549,7.67874002 76.4958537,14.0581303 C78.7450305,20.3882217 73.9649695,27.4507522 66.5944817,27.4507522 L66.5074085,27.4507522 L66.5074085,27.4507522 Z M69.7982622,17.7472156 C69.845,11.74749 66.2372256,12.0298376 66.2372256,12.0298376 C66.2372256,12.0298376 62.4585061,11.7026729 62.3554268,17.9348071 C62.2593902,23.7495022 66.1930488,23.3243803 66.1930488,23.3243803 C66.1930488,23.3243803 69.7489634,23.7495022 69.7982622,17.7472156 L69.7982622,17.7472156 Z" id="Fill-2" fill="#5C247B"></path>
                        <path d="M101.499787,5.6072561 C101.499787,6.10984756 101.29875,6.57146341 100.949817,6.91655488 C100.578476,7.28021341 100.107896,7.46908537 99.6021037,7.46908537 C99.1129573,7.46908537 98.6391768,7.28021341 98.2812805,6.91655488 C97.9208232,6.54969512 97.7293902,6.08871951 97.7293902,5.59573171 C97.7293902,5.09057927 97.9208232,4.61295732 98.2966463,4.24289634 C98.6391768,3.89268293 99.1027134,3.70637195 99.6085061,3.70637195 C100.125823,3.70637195 100.591921,3.89396341 100.953659,4.26146341 C101.308354,4.61295732 101.499787,5.09057927 101.499787,5.6072561 L101.499787,5.6072561 Z M99.6085061,3.45027439 C99.0303659,3.45027439 98.5066463,3.66155488 98.1141768,4.06170732 C97.6992988,4.48170732 97.4726524,5.02719512 97.4726524,5.59573171 C97.4726524,6.15594512 97.6916159,6.68862805 98.0975305,7.09006098 C98.5066463,7.50557927 99.0425305,7.72646341 99.6085061,7.72646341 C100.16872,7.72646341 100.703963,7.50557927 101.125244,7.09006098 C101.531159,6.69887195 101.74564,6.17771341 101.74564,5.59573171 C101.74564,5.0195122 101.531159,4.48170732 101.133567,4.07771341 C100.72253,3.67115854 100.192409,3.45027439 99.6085061,3.45027439 L99.6085061,3.45027439 Z M99.6706098,4.33317073 L98.7627439,4.33317073 L98.7627439,6.77506098 L99.1737805,6.77506098 L99.1737805,5.71353659 L99.6910976,5.71353659 L100.203293,6.77506098 L100.663628,6.77506098 L100.112378,5.6597561 C100.469634,5.59573171 100.685396,5.34219512 100.685396,5.0079878 C100.685396,4.54317073 100.346067,4.33317073 99.6706098,4.33317073 L99.6706098,4.33317073 Z M99.5918598,4.5995122 C100.048354,4.5995122 100.263476,4.72179878 100.263476,5.03679878 C100.263476,5.34219512 100.054756,5.4497561 99.6021037,5.4497561 L99.1737805,5.4497561 L99.1737805,4.5995122 L99.5918598,4.5995122 L99.5918598,4.5995122 Z" id="Fill-3" fill="#5C247B"></path>
                    </g>
                    <path d="M127.41,17.366 C127.41,18.6860066 127.204669,19.8336618 126.794,20.809 C126.383331,21.7843382 125.804004,22.5909968 125.056,23.229 C124.307996,23.8670032 123.413339,24.3436651 122.372,24.659 C121.330661,24.9743349 120.186673,25.132 118.94,25.132 C118.323997,25.132 117.64567,25.1063336 116.905,25.055 C116.16433,25.0036664 115.493336,24.9046674 114.892,24.758 L114.892,9.974 C115.493336,9.8273326 116.16433,9.72833359 116.905,9.677 C117.64567,9.62566641 118.323997,9.6 118.94,9.6 C120.186673,9.6 121.330661,9.75766509 122.372,10.073 C123.413339,10.3883349 124.307996,10.8649968 125.056,11.503 C125.804004,12.1410032 126.383331,12.9476618 126.794,13.923 C127.204669,14.8983382 127.41,16.0459934 127.41,17.366 L127.41,17.366 Z M119.116,23.262 C121.14001,23.262 122.650662,22.7450052 123.648,21.711 C124.645338,20.6769948 125.144,19.228676 125.144,17.366 C125.144,15.503324 124.645338,14.0550052 123.648,13.021 C122.650662,11.9869948 121.14001,11.47 119.116,11.47 C118.514664,11.47 118.049002,11.4773333 117.719,11.492 C117.388998,11.5066667 117.158001,11.5213333 117.026,11.536 L117.026,23.196 C117.158001,23.2106667 117.388998,23.2253333 117.719,23.24 C118.049002,23.2546667 118.514664,23.262 119.116,23.262 L119.116,23.262 Z M129.808,19.302 C129.808,18.2899949 129.954665,17.4063371 130.248,16.651 C130.541335,15.8956629 130.929998,15.2686692 131.414,14.77 C131.898002,14.2713308 132.45533,13.8973346 133.086,13.648 C133.71667,13.3986654 134.361997,13.274 135.022,13.274 C136.562008,13.274 137.742663,13.7543285 138.564,14.715 C139.385337,15.6756715 139.796,17.1386568 139.796,19.104 L139.796,19.445 C139.796,19.584334 139.788667,19.7126661 139.774,19.83 L131.942,19.83 C132.03,21.0180059 132.374664,21.9199969 132.976,22.536 C133.577336,23.1520031 134.515994,23.46 135.792,23.46 C136.51067,23.46 137.115664,23.3976673 137.607,23.273 C138.098336,23.1483327 138.468665,23.0273339 138.718,22.91 L139.004,24.626 C138.754665,24.7580007 138.318336,24.8973326 137.695,25.044 C137.071664,25.1906674 136.364004,25.264 135.572,25.264 C134.574662,25.264 133.713004,25.1136682 132.987,24.813 C132.260996,24.5123318 131.663336,24.0980026 131.194,23.57 C130.724664,23.0419974 130.376334,22.4150036 130.149,21.689 C129.921666,20.9629964 129.808,20.1673377 129.808,19.302 L129.808,19.302 Z M137.662,18.18 C137.676667,17.2559954 137.445669,16.497003 136.969,15.903 C136.492331,15.308997 135.836004,15.012 135,15.012 C134.530664,15.012 134.116335,15.1036657 133.757,15.287 C133.397665,15.4703342 133.093335,15.7086652 132.844,16.002 C132.594665,16.2953348 132.400334,16.6326648 132.261,17.014 C132.121666,17.3953352 132.03,17.783998 131.986,18.18 L137.662,18.18 Z M145.406,23.526 C146.242004,23.526 146.861665,23.4160011 147.265,23.196 C147.668335,22.9759989 147.87,22.6240024 147.87,22.14 C147.87,21.6413308 147.672002,21.2453348 147.276,20.952 C146.879998,20.6586652 146.227338,20.3286685 145.318,19.962 C144.877998,19.7859991 144.456335,19.6063342 144.053,19.423 C143.649665,19.2396657 143.301335,19.0233346 143.008,18.774 C142.714665,18.5246654 142.480001,18.2240018 142.304,17.872 C142.127999,17.5199982 142.04,17.0873359 142.04,16.574 C142.04,15.5619949 142.413996,14.759003 143.162,14.165 C143.910004,13.570997 144.929327,13.274 146.22,13.274 C146.542668,13.274 146.865332,13.2923331 147.188,13.329 C147.510668,13.3656668 147.811332,13.4096664 148.09,13.461 C148.368668,13.5123336 148.614332,13.567333 148.827,13.626 C149.039668,13.684667 149.204666,13.7359998 149.322,13.78 L148.948,15.54 C148.727999,15.4226661 148.383336,15.3016673 147.914,15.177 C147.444664,15.0523327 146.880003,14.99 146.22,14.99 C145.647997,14.99 145.149335,15.1036655 144.724,15.331 C144.298665,15.5583345 144.086,15.9139976 144.086,16.398 C144.086,16.6473346 144.133666,16.8673324 144.229,17.058 C144.324334,17.2486676 144.470999,17.4209992 144.669,17.575 C144.867001,17.7290008 145.112665,17.8719993 145.406,18.004 C145.699335,18.1360007 146.051331,18.2753326 146.462,18.422 C147.004669,18.6273344 147.488665,18.828999 147.914,19.027 C148.339335,19.225001 148.702332,19.4559987 149.003,19.72 C149.303668,19.9840013 149.534666,20.3029981 149.696,20.677 C149.857334,21.0510019 149.938,21.5093306 149.938,22.052 C149.938,23.1080053 149.545671,23.9073306 148.761,24.45 C147.976329,24.9926694 146.858007,25.264 145.406,25.264 C144.393995,25.264 143.602003,25.1796675 143.03,25.011 C142.457997,24.8423325 142.069334,24.7140004 141.864,24.626 L142.238,22.866 C142.472668,22.9540004 142.846664,23.0859991 143.36,23.262 C143.873336,23.4380009 144.555329,23.526 145.406,23.526 L145.406,23.526 Z M154.602,25 L152.556,25 L152.556,13.56 L154.602,13.56 L154.602,25 Z M153.568,11.492 C153.201332,11.492 152.889668,11.3710012 152.633,11.129 C152.376332,10.8869988 152.248,10.5606687 152.248,10.15 C152.248,9.73933128 152.376332,9.41300121 152.633,9.171 C152.889668,8.92899879 153.201332,8.808 153.568,8.808 C153.934668,8.808 154.246332,8.92899879 154.503,9.171 C154.759668,9.41300121 154.888,9.73933128 154.888,10.15 C154.888,10.5606687 154.759668,10.8869988 154.503,11.129 C154.246332,11.3710012 153.934668,11.492 153.568,11.492 L153.568,11.492 Z M165.294,23.856 C165.117999,23.9733339 164.777003,24.1236657 164.271,24.307 C163.764997,24.4903342 163.17467,24.582 162.5,24.582 C161.810663,24.582 161.16167,24.4720011 160.553,24.252 C159.94433,24.0319989 159.412669,23.6910023 158.958,23.229 C158.503331,22.7669977 158.144001,22.1913368 157.88,21.502 C157.615999,20.8126632 157.484,19.9913381 157.484,19.038 C157.484,18.2019958 157.608665,17.4356701 157.858,16.739 C158.107335,16.0423298 158.470331,15.4410025 158.947,14.935 C159.423669,14.4289975 160.006663,14.0330014 160.696,13.747 C161.385337,13.4609986 162.162662,13.318 163.028,13.318 C163.981338,13.318 164.813663,13.387666 165.525,13.527 C166.236337,13.666334 166.833998,13.7946661 167.318,13.912 L167.318,24.12 C167.318,25.8800088 166.863338,27.155996 165.954,27.948 C165.044662,28.740004 163.666009,29.136 161.818,29.136 C161.09933,29.136 160.421003,29.0773339 159.783,28.96 C159.144997,28.8426661 158.591336,28.7033341 158.122,28.542 L158.496,26.76 C158.906669,26.9213341 159.408997,27.0643327 160.003,27.189 C160.597003,27.3136673 161.216663,27.376 161.862,27.376 C163.079339,27.376 163.955664,27.1340024 164.491,26.65 C165.026336,26.1659976 165.294,25.3960053 165.294,24.34 L165.294,23.856 Z M165.272,15.364 C165.066666,15.305333 164.791668,15.2503336 164.447,15.199 C164.102332,15.1476664 163.63667,15.122 163.05,15.122 C161.949995,15.122 161.103003,15.4813297 160.509,16.2 C159.914997,16.9186703 159.618,17.8719941 159.618,19.06 C159.618,19.7200033 159.702332,20.2846643 159.871,20.754 C160.039668,21.2233357 160.266999,21.6119985 160.553,21.92 C160.839001,22.2280015 161.168998,22.4553326 161.543,22.602 C161.917002,22.7486674 162.301998,22.822 162.698,22.822 C163.240669,22.822 163.739331,22.7450008 164.194,22.591 C164.648669,22.4369992 165.007999,22.2573344 165.272,22.052 L165.272,15.364 Z M170.838,13.89 C171.307336,13.7726661 171.930663,13.6480007 172.708,13.516 C173.485337,13.3839993 174.379995,13.318 175.392,13.318 C176.301338,13.318 177.056664,13.446332 177.658,13.703 C178.259336,13.9596679 178.739665,14.3189977 179.099,14.781 C179.458335,15.2430023 179.711333,15.7966634 179.858,16.442 C180.004667,17.0873366 180.078,17.7986628 180.078,18.576 L180.078,25 L178.032,25 L178.032,19.016 C178.032,18.3119965 177.984334,17.7106692 177.889,17.212 C177.793666,16.7133308 177.636001,16.3100015 177.416,16.002 C177.195999,15.6939985 176.902669,15.470334 176.536,15.331 C176.169331,15.191666 175.714669,15.122 175.172,15.122 C174.951999,15.122 174.724668,15.1293333 174.49,15.144 C174.255332,15.1586667 174.031668,15.1769999 173.819,15.199 C173.606332,15.2210001 173.415668,15.2466665 173.247,15.276 C173.078332,15.3053335 172.957334,15.3273333 172.884,15.342 L172.884,25 L170.838,25 L170.838,13.89 Z" id="Design" fill="#FFFFFF"></path>
                </g>
            </g>
        </g>
    </g>
</svg>